# xmcd CD database file
#
# Track frame offsets:
#	150
#	11114
#	21192
#	32973
#	43654
#	54919
#	66655
#	76158
#	88332
#	100744
#	110745
#	121957
#	132110
#	143169
#	153997
#	165980
#	175573
#	185759
#	196819
#	206477
#
# Disc length: 2893 seconds
#
# Revision: 0
# Processed by: cddbd v1.5.2PL0 Copyright (c) Steve Scherf et al.
# Submitted via: CDex 1.70beta2
#
DISCID=100b4b14
DTITLE=Hank Snow - I'm Movin' On CD 2
DYEAR=1900
DGENRE=Country
TTITLE0=Let Me Go Lover
TTITLE1=Rainbow Boogie
TTITLE2=Vaya Con Dios
TTITLE3=Madison Madness
TTITLE4=Twelfth Street Rag
TTITLE5=The Next Voice You Hear
TTITLE6=Cuba Rhumba
TTITLE7=A Scale To Measure Love
TTITLE8=Yellow Roses
TTITLE9=Would You Mind
TTITLE10=Carribean
TTITLE11=Can't Have You Blues
TTITLE12=Cryin', Prayin', Waitin', Hopin'
TTITLE13=I'm Glad I Got To See You Once Again
TTITLE14=Born To Be Happy
TTITLE15=Mainlainer
TTITLE16=Silver Bell
TTITLE17=The Old Spinning Wheel
TTITLE18=Trouble Trouble Trouble
TTITLE19=What Do I Know Today
EXTD=
EXTT0=
EXTT1=
EXTT2=
EXTT3=
EXTT4=
EXTT5=
EXTT6=
EXTT7=
EXTT8=
EXTT9=
EXTT10=
EXTT11=
EXTT12=
EXTT13=
EXTT14=
EXTT15=
EXTT16=
EXTT17=
EXTT18=
EXTT19=
PLAYORDER=
